<svg xmlns="http://www.w3.org/2000/svg" viewBox="0 0 800 400" width="800" preserveAspectRatio="xMidYMid meet">
  <g font-family="'Courier New', Consolas, monospace" font-weight="700" fill="#1c2a41">
    <text x="497" y="39" transform="rotate(-16 497 39)" style="font-size: 16px;" opacity="0.6">0</text>
    <text x="526" y="351" transform="rotate(-29 526 351)" style="font-size: 18px;" opacity="0.5">0</text>
    <text x="77" y="114" transform="rotate(7 77 114)" style="font-size: 22px;" opacity="0.6">1</text>
    <text x="175" y="242" transform="rotate(22 175 242)" style="font-size: 12px;" opacity="1.0">1</text>
    <text x="543" y="152" transform="rotate(-24 543 152)" style="font-size: 30px;" opacity="0.7">0</text>
    <text x="76" y="65" transform="rotate(24 76 65)" style="font-size: 24px;" opacity="0.7">0</text>
    <text x="567" y="223" transform="rotate(33 567 223)" style="font-size: 18px;" opacity="0.5">0</text>
    <text x="644" y="253" transform="rotate(25 644 253)" style="font-size: 24px;" opacity="0.6">0</text>
    <text x="40" y="112" transform="rotate(-15 40 112)" style="font-size: 14px;" opacity="1.0">1</text>
    <text x="672" y="167" transform="rotate(-3 672 167)" style="font-size: 32px;" opacity="0.7">1</text>
    <text x="290" y="105" transform="rotate(-16 290 105)" style="font-size: 26px;" opacity="1.0">0</text>
    <text x="474" y="92" transform="rotate(16 474 92)" style="font-size: 14px;" opacity="0.8">1</text>
    <text x="213" y="363" transform="rotate(13 213 363)" style="font-size: 16px;" opacity="1.0">0</text>
    <text x="654" y="309" transform="rotate(-19 654 309)" style="font-size: 12px;" opacity="1.0">0</text>
    <text x="314" y="54" transform="rotate(29 314 54)" style="font-size: 24px;" opacity="1.0">0</text>
    <text x="169" y="210" transform="rotate(27 169 210)" style="font-size: 26px;" opacity="0.8">1</text>
    <text x="209" y="119" transform="rotate(4 209 119)" style="font-size: 16px;" opacity="1.0">1</text>
    <text x="696" y="174" transform="rotate(-20 696 174)" style="font-size: 14px;" opacity="0.9">1</text>
    <text x="75" y="47" transform="rotate(-27 75 47)" style="font-size: 26px;" opacity="0.6">1</text>
    <text x="464" y="169" transform="rotate(7 464 169)" style="font-size: 20px;" opacity="0.9">0</text>
    <text x="753" y="340" transform="rotate(-34 753 340)" style="font-size: 28px;" opacity="0.5">0</text>
    <text x="597" y="152" transform="rotate(-14 597 152)" style="font-size: 14px;" opacity="0.8">0</text>
    <text x="739" y="345" transform="rotate(-17 739 345)" style="font-size: 22px;" opacity="1.0">1</text>
    <text x="396" y="68" transform="rotate(9 396 68)" style="font-size: 32px;" opacity="1.0">1</text>
    <text x="123" y="305" transform="rotate(3 123 305)" style="font-size: 30px;" opacity="0.9">0</text>
    <text x="466" y="206" transform="rotate(-27 466 206)" style="font-size: 18px;" opacity="1.0">0</text>
    <text x="189" y="117" transform="rotate(5 189 117)" style="font-size: 14px;" opacity="0.5">1</text>
    <text x="633" y="382" transform="rotate(2 633 382)" style="font-size: 14px;" opacity="0.6">1</text>
    <text x="734" y="89" transform="rotate(2 734 89)" style="font-size: 24px;" opacity="0.8">1</text>
    <text x="720" y="302" transform="rotate(13 720 302)" style="font-size: 28px;" opacity="0.7">1</text>
    <text x="771" y="264" transform="rotate(-4 771 264)" style="font-size: 22px;" opacity="0.8">0</text>
    <text x="196" y="53" transform="rotate(-34 196 53)" style="font-size: 22px;" opacity="0.6">1</text>
    <text x="11" y="285" transform="rotate(-31 11 285)" style="font-size: 14px;" opacity="0.5">0</text>
    <text x="60" y="116" transform="rotate(12 60 116)" style="font-size: 16px;" opacity="0.9">1</text>
    <text x="562" y="348" transform="rotate(5 562 348)" style="font-size: 16px;" opacity="1.0">1</text>
    <text x="627" y="99" transform="rotate(-28 627 99)" style="font-size: 18px;" opacity="0.7">1</text>
    <text x="322" y="341" transform="rotate(-31 322 341)" style="font-size: 26px;" opacity="1.0">0</text>
    <text x="52" y="292" transform="rotate(21 52 292)" style="font-size: 14px;" opacity="0.6">1</text>
    <text x="151" y="192" transform="rotate(-5 151 192)" style="font-size: 16px;" opacity="0.8">1</text>
    <text x="678" y="57" transform="rotate(22 678 57)" style="font-size: 32px;" opacity="0.9">0</text>
    <text x="44" y="390" transform="rotate(24 44 390)" style="font-size: 14px;" opacity="1.0">1</text>
    <text x="133" y="205" transform="rotate(-20 133 205)" style="font-size: 18px;" opacity="0.5">1</text>
    <text x="297" y="385" transform="rotate(-16 297 385)" style="font-size: 30px;" opacity="1.0">1</text>
    <text x="225" y="281" transform="rotate(16 225 281)" style="font-size: 30px;" opacity="0.9">1</text>
    <text x="124" y="137" transform="rotate(33 124 137)" style="font-size: 24px;" opacity="1.0">0</text>
    <text x="581" y="51" transform="rotate(6 581 51)" style="font-size: 22px;" opacity="1.0">1</text>
    <text x="49" y="213" transform="rotate(25 49 213)" style="font-size: 14px;" opacity="0.9">0</text>
    <text x="525" y="115" transform="rotate(-27 525 115)" style="font-size: 24px;" opacity="0.6">0</text>
    <text x="482" y="181" transform="rotate(6 482 181)" style="font-size: 22px;" opacity="0.7">0</text>
    <text x="162" y="288" transform="rotate(-18 162 288)" style="font-size: 18px;" opacity="0.6">0</text>
    <text x="357" y="364" transform="rotate(31 357 364)" style="font-size: 12px;" opacity="0.8">0</text>
    <text x="61" y="107" transform="rotate(-16 61 107)" style="font-size: 18px;" opacity="0.5">1</text>
    <text x="290" y="87" transform="rotate(23 290 87)" style="font-size: 28px;" opacity="0.7">0</text>
    <text x="519" y="230" transform="rotate(30 519 230)" style="font-size: 14px;" opacity="0.6">0</text>
    <text x="94" y="69" transform="rotate(4 94 69)" style="font-size: 16px;" opacity="0.7">1</text>
    <text x="558" y="103" transform="rotate(9 558 103)" style="font-size: 16px;" opacity="0.9">1</text>
    <text x="198" y="357" transform="rotate(-31 198 357)" style="font-size: 26px;" opacity="0.8">0</text>
    <text x="39" y="150" transform="rotate(-26 39 150)" style="font-size: 16px;" opacity="0.6">1</text>
    <text x="430" y="184" transform="rotate(-34 430 184)" style="font-size: 14px;" opacity="1.0">1</text>
    <text x="425" y="330" transform="rotate(6 425 330)" style="font-size: 14px;" opacity="0.8">1</text>
    <text x="37" y="161" transform="rotate(30 37 161)" style="font-size: 32px;" opacity="0.5">0</text>
    <text x="167" y="120" transform="rotate(-28 167 120)" style="font-size: 30px;" opacity="0.9">1</text>
    <text x="755" y="300" transform="rotate(30 755 300)" style="font-size: 16px;" opacity="1.0">1</text>
    <text x="757" y="322" transform="rotate(27 757 322)" style="font-size: 12px;" opacity="0.6">0</text>
    <text x="607" y="178" transform="rotate(12 607 178)" style="font-size: 28px;" opacity="1.0">1</text>
    <text x="210" y="313" transform="rotate(-27 210 313)" style="font-size: 32px;" opacity="0.5">1</text>
    <text x="176" y="324" transform="rotate(-3 176 324)" style="font-size: 16px;" opacity="1.0">1</text>
    <text x="177" y="268" transform="rotate(-7 177 268)" style="font-size: 16px;" opacity="1.0">0</text>
    <text x="750" y="130" transform="rotate(10 750 130)" style="font-size: 18px;" opacity="1.0">0</text>
    <text x="728" y="72" transform="rotate(33 728 72)" style="font-size: 14px;" opacity="0.9">0</text>
    <text x="34" y="245" transform="rotate(-11 34 245)" style="font-size: 30px;" opacity="0.7">1</text>
    <text x="472" y="214" transform="rotate(-8 472 214)" style="font-size: 24px;" opacity="0.6">0</text>
    <text x="39" y="187" transform="rotate(1 39 187)" style="font-size: 30px;" opacity="0.9">1</text>
    <text x="285" y="55" transform="rotate(11 285 55)" style="font-size: 18px;" opacity="0.9">0</text>
    <text x="516" y="75" transform="rotate(28 516 75)" style="font-size: 22px;" opacity="0.7">1</text>
    <text x="256" y="281" transform="rotate(4 256 281)" style="font-size: 16px;" opacity="0.8">1</text>
    <text x="527" y="355" transform="rotate(8 527 355)" style="font-size: 16px;" opacity="0.8">0</text>
    <text x="239" y="106" transform="rotate(20 239 106)" style="font-size: 24px;" opacity="1.0">0</text>
    <text x="363" y="189" transform="rotate(-20 363 189)" style="font-size: 20px;" opacity="1.0">1</text>
    <text x="512" y="132" transform="rotate(11 512 132)" style="font-size: 24px;" opacity="0.7">0</text>
    <text x="635" y="300" transform="rotate(12 635 300)" style="font-size: 16px;" opacity="1.0">1</text>
    <text x="118" y="47" transform="rotate(34 118 47)" style="font-size: 24px;" opacity="1.0">0</text>
    <text x="356" y="349" transform="rotate(5 356 349)" style="font-size: 28px;" opacity="1.0">1</text>
    <text x="386" y="118" transform="rotate(11 386 118)" style="font-size: 12px;" opacity="1.0">0</text>
    <text x="604" y="109" transform="rotate(21 604 109)" style="font-size: 28px;" opacity="0.9">1</text>
    <text x="44" y="120" transform="rotate(24 44 120)" style="font-size: 20px;" opacity="0.6">1</text>
    <text x="519" y="386" transform="rotate(7 519 386)" style="font-size: 30px;" opacity="0.8">1</text>
    <text x="645" y="227" transform="rotate(28 645 227)" style="font-size: 28px;" opacity="1.0">1</text>
    <text x="352" y="301" transform="rotate(24 352 301)" style="font-size: 16px;" opacity="1.0">1</text>
    <text x="488" y="129" transform="rotate(-30 488 129)" style="font-size: 16px;" opacity="0.6">0</text>
    <text x="264" y="351" transform="rotate(-29 264 351)" style="font-size: 14px;" opacity="0.6">1</text>
    <text x="539" y="284" transform="rotate(-31 539 284)" style="font-size: 18px;" opacity="0.7">1</text>
    <text x="325" y="104" transform="rotate(-6 325 104)" style="font-size: 30px;" opacity="0.9">0</text>
    <text x="665" y="306" transform="rotate(-8 665 306)" style="font-size: 12px;" opacity="0.7">0</text>
    <text x="585" y="337" transform="rotate(32 585 337)" style="font-size: 18px;" opacity="0.9">1</text>
    <text x="381" y="128" transform="rotate(-1 381 128)" style="font-size: 18px;" opacity="0.7">1</text>
    <text x="563" y="333" transform="rotate(29 563 333)" style="font-size: 24px;" opacity="0.9">0</text>
    <text x="703" y="243" transform="rotate(11 703 243)" style="font-size: 14px;" opacity="1.0">1</text>
    <text x="109" y="196" transform="rotate(-31 109 196)" style="font-size: 18px;" opacity="0.7">1</text>
    <text x="355" y="152" transform="rotate(27 355 152)" style="font-size: 16px;" opacity="1.0">1</text>
    <text x="199" y="59" transform="rotate(-34 199 59)" style="font-size: 22px;" opacity="0.5">0</text>
    <text x="178" y="55" transform="rotate(32 178 55)" style="font-size: 12px;" opacity="1.0">0</text>
    <text x="736" y="102" transform="rotate(-34 736 102)" style="font-size: 14px;" opacity="0.6">1</text>
    <text x="370" y="71" transform="rotate(31 370 71)" style="font-size: 20px;" opacity="1.0">0</text>
    <text x="596" y="90" transform="rotate(8 596 90)" style="font-size: 28px;" opacity="1.0">0</text>
    <text x="604" y="89" transform="rotate(-13 604 89)" style="font-size: 24px;" opacity="0.5">0</text>
    <text x="448" y="357" transform="rotate(-9 448 357)" style="font-size: 28px;" opacity="0.6">0</text>
    <text x="461" y="329" transform="rotate(-18 461 329)" style="font-size: 28px;" opacity="1.0">0</text>
    <text x="660" y="246" transform="rotate(-27 660 246)" style="font-size: 24px;" opacity="1.0">0</text>
    <text x="272" y="184" transform="rotate(-9 272 184)" style="font-size: 22px;" opacity="1.0">0</text>
    <text x="15" y="181" transform="rotate(-1 15 181)" style="font-size: 18px;" opacity="0.7">1</text>
    <text x="550" y="187" transform="rotate(16 550 187)" style="font-size: 26px;" opacity="0.7">1</text>
    <text x="363" y="327" transform="rotate(6 363 327)" style="font-size: 18px;" opacity="1.0">1</text>
    <text x="645" y="61" transform="rotate(27 645 61)" style="font-size: 16px;" opacity="1.0">1</text>
    <text x="444" y="271" transform="rotate(-11 444 271)" style="font-size: 20px;" opacity="1.0">0</text>
    <text x="145" y="106" transform="rotate(21 145 106)" style="font-size: 18px;" opacity="0.7">0</text>
    <text x="433" y="216" transform="rotate(-22 433 216)" style="font-size: 16px;" opacity="1.0">1</text>
    <text x="381" y="303" transform="rotate(13 381 303)" style="font-size: 26px;" opacity="1.0">1</text>
    <text x="350" y="36" transform="rotate(-14 350 36)" style="font-size: 18px;" opacity="1.0">1</text>
    <text x="241" y="239" transform="rotate(-2 241 239)" style="font-size: 22px;" opacity="0.7">1</text>
    <text x="772" y="228" transform="rotate(-10 772 228)" style="font-size: 20px;" opacity="0.7">0</text>
    <text x="199" y="73" transform="rotate(-22 199 73)" style="font-size: 14px;" opacity="1.0">1</text>
    <text x="152" y="296" transform="rotate(-16 152 296)" style="font-size: 24px;" opacity="1.0">0</text>
    <text x="760" y="330" transform="rotate(-14 760 330)" style="font-size: 18px;" opacity="0.6">0</text>
    <text x="16" y="222" transform="rotate(-16 16 222)" style="font-size: 12px;" opacity="0.9">0</text>
    <text x="542" y="75" transform="rotate(26 542 75)" style="font-size: 20px;" opacity="0.5">0</text>
    <text x="447" y="199" transform="rotate(-4 447 199)" style="font-size: 14px;" opacity="0.5">0</text>
    <text x="730" y="202" transform="rotate(23 730 202)" style="font-size: 18px;" opacity="0.8">0</text>
    <text x="449" y="277" transform="rotate(-24 449 277)" style="font-size: 30px;" opacity="0.9">0</text>
    <text x="71" y="119" transform="rotate(4 71 119)" style="font-size: 18px;" opacity="0.9">1</text>
    <text x="602" y="167" transform="rotate(29 602 167)" style="font-size: 16px;" opacity="1.0">1</text>
    <text x="240" y="254" transform="rotate(8 240 254)" style="font-size: 28px;" opacity="0.5">1</text>
    <text x="487" y="125" transform="rotate(-29 487 125)" style="font-size: 16px;" opacity="0.6">0</text>
    <text x="126" y="177" transform="rotate(13 126 177)" style="font-size: 20px;" opacity="0.7">0</text>
    <text x="183" y="285" transform="rotate(14 183 285)" style="font-size: 20px;" opacity="0.5">1</text>
    <text x="716" y="314" transform="rotate(9 716 314)" style="font-size: 26px;" opacity="1.0">1</text>
    <text x="332" y="226" transform="rotate(10 332 226)" style="font-size: 16px;" opacity="1.0">1</text>
    <text x="60" y="90" transform="rotate(-13 60 90)" style="font-size: 28px;" opacity="1.0">0</text>
    <text x="343" y="199" transform="rotate(-14 343 199)" style="font-size: 18px;" opacity="0.7">1</text>
    <text x="342" y="245" transform="rotate(27 342 245)" style="font-size: 28px;" opacity="0.7">0</text>
    <text x="25" y="112" transform="rotate(12 25 112)" style="font-size: 32px;" opacity="0.9">0</text>
    <text x="775" y="272" transform="rotate(-16 775 272)" style="font-size: 12px;" opacity="1.0">1</text>
    <text x="367" y="265" transform="rotate(29 367 265)" style="font-size: 14px;" opacity="0.9">1</text>
    <text x="494" y="207" transform="rotate(-29 494 207)" style="font-size: 18px;" opacity="0.8">0</text>
    <text x="252" y="68" transform="rotate(-24 252 68)" style="font-size: 18px;" opacity="1.0">1</text>
    <text x="227" y="370" transform="rotate(22 227 370)" style="font-size: 22px;" opacity="0.5">1</text>
    <text x="73" y="121" transform="rotate(-27 73 121)" style="font-size: 30px;" opacity="0.8">0</text>
    <text x="511" y="225" transform="rotate(-6 511 225)" style="font-size: 16px;" opacity="0.9">0</text>
    <text x="484" y="209" transform="rotate(-4 484 209)" style="font-size: 12px;" opacity="0.6">0</text>
    <text x="428" y="364" transform="rotate(-4 428 364)" style="font-size: 28px;" opacity="0.8">0</text>
    <text x="27" y="257" transform="rotate(21 27 257)" style="font-size: 28px;" opacity="0.6">0</text>
    <text x="429" y="229" transform="rotate(-28 429 229)" style="font-size: 32px;" opacity="0.5">1</text>
    <text x="734" y="263" transform="rotate(-24 734 263)" style="font-size: 28px;" opacity="0.7">0</text>
    <text x="325" y="204" transform="rotate(-2 325 204)" style="font-size: 20px;" opacity="0.9">1</text>
    <text x="300" y="362" transform="rotate(1 300 362)" style="font-size: 14px;" opacity="1.0">0</text>
    <text x="218" y="314" transform="rotate(-6 218 314)" style="font-size: 30px;" opacity="0.9">0</text>
    <text x="637" y="132" transform="rotate(-14 637 132)" style="font-size: 24px;" opacity="0.9">1</text>
    <text x="671" y="191" transform="rotate(-1 671 191)" style="font-size: 18px;" opacity="0.9">1</text>
    <text x="356" y="146" transform="rotate(-22 356 146)" style="font-size: 28px;" opacity="0.6">1</text>
    <text x="185" y="309" transform="rotate(-32 185 309)" style="font-size: 28px;" opacity="0.8">1</text>
    <text x="302" y="269" transform="rotate(22 302 269)" style="font-size: 14px;" opacity="0.8">0</text>
    <text x="102" y="378" transform="rotate(-12 102 378)" style="font-size: 14px;" opacity="1.0">1</text>
    <text x="82" y="358" transform="rotate(-34 82 358)" style="font-size: 14px;" opacity="0.8">1</text>
    <text x="63" y="311" transform="rotate(-16 63 311)" style="font-size: 24px;" opacity="1.0">1</text>
    <text x="505" y="337" transform="rotate(25 505 337)" style="font-size: 32px;" opacity="0.9">1</text>
    <text x="740" y="256" transform="rotate(27 740 256)" style="font-size: 20px;" opacity="1.0">0</text>
    <text x="480" y="115" transform="rotate(13 480 115)" style="font-size: 16px;" opacity="0.6">0</text>
    <text x="339" y="65" transform="rotate(9 339 65)" style="font-size: 32px;" opacity="0.5">1</text>
    <text x="133" y="138" transform="rotate(-33 133 138)" style="font-size: 18px;" opacity="1.0">0</text>
    <text x="231" y="165" transform="rotate(-25 231 165)" style="font-size: 22px;" opacity="0.8">1</text>
    <text x="136" y="58" transform="rotate(26 136 58)" style="font-size: 24px;" opacity="1.0">1</text>
    <text x="388" y="240" transform="rotate(-19 388 240)" style="font-size: 26px;" opacity="0.7">1</text>
    <text x="202" y="33" transform="rotate(21 202 33)" style="font-size: 16px;" opacity="1.0">1</text>
    <text x="62" y="370" transform="rotate(34 62 370)" style="font-size: 16px;" opacity="1.0">1</text>
    <text x="537" y="194" transform="rotate(-14 537 194)" style="font-size: 18px;" opacity="1.0">1</text>
    <text x="87" y="167" transform="rotate(-10 87 167)" style="font-size: 16px;" opacity="1.0">0</text>
    <text x="22" y="329" transform="rotate(-7 22 329)" style="font-size: 12px;" opacity="0.9">0</text>
    <text x="706" y="298" transform="rotate(23 706 298)" style="font-size: 16px;" opacity="1.0">1</text>
    <text x="472" y="157" transform="rotate(10 472 157)" style="font-size: 24px;" opacity="0.7">1</text>
    <text x="489" y="355" transform="rotate(10 489 355)" style="font-size: 16px;" opacity="1.0">1</text>
    <text x="31" y="161" transform="rotate(-26 31 161)" style="font-size: 16px;" opacity="0.7">1</text>
    <text x="140" y="78" transform="rotate(3 140 78)" style="font-size: 18px;" opacity="0.9">0</text>
    <text x="644" y="123" transform="rotate(23 644 123)" style="font-size: 20px;" opacity="1.0">0</text>
    <text x="580" y="152" transform="rotate(-27 580 152)" style="font-size: 14px;" opacity="0.6">1</text>
    <text x="667" y="291" transform="rotate(34 667 291)" style="font-size: 32px;" opacity="1.0">0</text>
    <text x="75" y="172" transform="rotate(-16 75 172)" style="font-size: 14px;" opacity="0.8">0</text>
    <text x="523" y="272" transform="rotate(6 523 272)" style="font-size: 32px;" opacity="1.0">0</text>
    <text x="88" y="114" transform="rotate(-33 88 114)" style="font-size: 22px;" opacity="0.7">1</text>
    <text x="504" y="259" transform="rotate(-3 504 259)" style="font-size: 28px;" opacity="0.7">1</text>
    <text x="95" y="46" transform="rotate(-32 95 46)" style="font-size: 20px;" opacity="0.5">0</text>
    <text x="186" y="224" transform="rotate(-8 186 224)" style="font-size: 18px;" opacity="1.0">1</text>
    <text x="457" y="292" transform="rotate(27 457 292)" style="font-size: 26px;" opacity="0.5">1</text>
    <text x="479" y="368" transform="rotate(-15 479 368)" style="font-size: 28px;" opacity="0.7">1</text>
    <text x="346" y="372" transform="rotate(25 346 372)" style="font-size: 14px;" opacity="1.0">0</text>
    <text x="424" y="382" transform="rotate(-10 424 382)" style="font-size: 18px;" opacity="0.7">1</text>
    <text x="751" y="372" transform="rotate(23 751 372)" style="font-size: 14px;" opacity="1.0">1</text>
    <text x="499" y="245" transform="rotate(-34 499 245)" style="font-size: 30px;" opacity="0.7">1</text>
    <text x="766" y="313" transform="rotate(-21 766 313)" style="font-size: 32px;" opacity="1.0">1</text>
    <text x="457" y="323" transform="rotate(-19 457 323)" style="font-size: 30px;" opacity="0.6">0</text>
    <text x="219" y="384" transform="rotate(34 219 384)" style="font-size: 22px;" opacity="0.7">1</text>
    <text x="90" y="342" transform="rotate(-26 90 342)" style="font-size: 18px;" opacity="1.0">1</text>
    <text x="458" y="36" transform="rotate(-16 458 36)" style="font-size: 14px;" opacity="1.0">1</text>
    <text x="410" y="298" transform="rotate(-2 410 298)" style="font-size: 30px;" opacity="0.7">0</text>
    <text x="353" y="110" transform="rotate(8 353 110)" style="font-size: 28px;" opacity="1.0">0</text>
    <text x="358" y="377" transform="rotate(-31 358 377)" style="font-size: 20px;" opacity="1.0">1</text>
    <text x="333" y="69" transform="rotate(15 333 69)" style="font-size: 20px;" opacity="0.5">0</text>
    <text x="253" y="83" transform="rotate(-26 253 83)" style="font-size: 24px;" opacity="1.0">0</text>
    <text x="298" y="245" transform="rotate(-14 298 245)" style="font-size: 22px;" opacity="0.9">1</text>
    <text x="81" y="283" transform="rotate(25 81 283)" style="font-size: 26px;" opacity="1.0">1</text>
    <text x="336" y="350" transform="rotate(-6 336 350)" style="font-size: 32px;" opacity="0.8">1</text>
    <text x="325" y="64" transform="rotate(-5 325 64)" style="font-size: 26px;" opacity="0.7">0</text>
    <text x="739" y="277" transform="rotate(-2 739 277)" style="font-size: 14px;" opacity="1.0">0</text>
    <text x="77" y="65" transform="rotate(17 77 65)" style="font-size: 30px;" opacity="0.6">0</text>
    <text x="457" y="232" transform="rotate(-12 457 232)" style="font-size: 14px;" opacity="0.8">0</text>
    <text x="678" y="369" transform="rotate(-5 678 369)" style="font-size: 28px;" opacity="0.5">0</text>
    <text x="467" y="157" transform="rotate(5 467 157)" style="font-size: 16px;" opacity="0.6">1</text>
    <text x="178" y="69" transform="rotate(24 178 69)" style="font-size: 18px;" opacity="0.5">0</text>
    <text x="447" y="321" transform="rotate(24 447 321)" style="font-size: 30px;" opacity="1.0">0</text>
    <text x="474" y="267" transform="rotate(14 474 267)" style="font-size: 12px;" opacity="0.6">0</text>
    <text x="546" y="141" transform="rotate(-11 546 141)" style="font-size: 12px;" opacity="0.6">1</text>
    <text x="441" y="174" transform="rotate(-25 441 174)" style="font-size: 26px;" opacity="0.5">0</text>
    <text x="580" y="107" transform="rotate(-6 580 107)" style="font-size: 18px;" opacity="0.6">0</text>
    <text x="245" y="147" transform="rotate(31 245 147)" style="font-size: 24px;" opacity="0.5">0</text>
    <text x="125" y="302" transform="rotate(-32 125 302)" style="font-size: 14px;" opacity="0.7">1</text>
    <text x="515" y="205" transform="rotate(-4 515 205)" style="font-size: 16px;" opacity="0.6">0</text>
    <text x="271" y="70" transform="rotate(12 271 70)" style="font-size: 24px;" opacity="0.8">0</text>
    <text x="40" y="172" transform="rotate(7 40 172)" style="font-size: 12px;" opacity="0.6">0</text>
    <text x="733" y="306" transform="rotate(18 733 306)" style="font-size: 16px;" opacity="0.7">0</text>
    <text x="11" y="299" transform="rotate(-23 11 299)" style="font-size: 18px;" opacity="0.9">1</text>
    <text x="390" y="330" transform="rotate(21 390 330)" style="font-size: 14px;" opacity="0.8">0</text>
    <text x="341" y="196" transform="rotate(-30 341 196)" style="font-size: 18px;" opacity="0.9">1</text>
    <text x="447" y="285" transform="rotate(-6 447 285)" style="font-size: 14px;" opacity="0.8">0</text>
    <text x="749" y="92" transform="rotate(31 749 92)" style="font-size: 20px;" opacity="1.0">0</text>
    <text x="73" y="334" transform="rotate(-18 73 334)" style="font-size: 24px;" opacity="0.8">0</text>
    <text x="310" y="142" transform="rotate(-11 310 142)" style="font-size: 18px;" opacity="1.0">1</text>
    <text x="64" y="258" transform="rotate(2 64 258)" style="font-size: 16px;" opacity="1.0">0</text>
    <text x="275" y="375" transform="rotate(10 275 375)" style="font-size: 14px;" opacity="0.6">0</text>
    <text x="118" y="101" transform="rotate(7 118 101)" style="font-size: 30px;" opacity="1.0">0</text>
    <text x="141" y="308" transform="rotate(-0 141 308)" style="font-size: 30px;" opacity="0.9">1</text>
    <text x="529" y="348" transform="rotate(10 529 348)" style="font-size: 24px;" opacity="0.7">0</text>
    <text x="121" y="55" transform="rotate(-4 121 55)" style="font-size: 16px;" opacity="1.0">0</text>
    <text x="460" y="157" transform="rotate(-30 460 157)" style="font-size: 20px;" opacity="0.8">0</text>
    <text x="49" y="329" transform="rotate(-30 49 329)" style="font-size: 32px;" opacity="1.0">0</text>
    <text x="479" y="213" transform="rotate(-3 479 213)" style="font-size: 22px;" opacity="1.0">0</text>
    <text x="351" y="322" transform="rotate(11 351 322)" style="font-size: 18px;" opacity="0.9">1</text>
    <text x="391" y="375" transform="rotate(-3 391 375)" style="font-size: 30px;" opacity="1.0">0</text>
    <text x="761" y="60" transform="rotate(10 761 60)" style="font-size: 12px;" opacity="0.6">1</text>
    <text x="768" y="219" transform="rotate(8 768 219)" style="font-size: 18px;" opacity="0.7">0</text>
    <text x="303" y="309" transform="rotate(13 303 309)" style="font-size: 12px;" opacity="1.0">0</text>
    <text x="56" y="64" transform="rotate(12 56 64)" style="font-size: 16px;" opacity="0.7">1</text>
    <text x="262" y="240" transform="rotate(-25 262 240)" style="font-size: 18px;" opacity="0.7">1</text>
    <text x="104" y="285" transform="rotate(-29 104 285)" style="font-size: 22px;" opacity="0.8">0</text>
    <text x="631" y="271" transform="rotate(23 631 271)" style="font-size: 28px;" opacity="1.0">0</text>
    <text x="502" y="182" transform="rotate(-10 502 182)" style="font-size: 18px;" opacity="0.7">1</text>
    <text x="737" y="153" transform="rotate(19 737 153)" style="font-size: 16px;" opacity="0.6">1</text>
    <text x="124" y="136" transform="rotate(20 124 136)" style="font-size: 22px;" opacity="1.0">0</text>
    <text x="515" y="346" transform="rotate(8 515 346)" style="font-size: 24px;" opacity="0.8">1</text>
    <text x="130" y="329" transform="rotate(19 130 329)" style="font-size: 30px;" opacity="0.6">1</text>
    <text x="39" y="161" transform="rotate(15 39 161)" style="font-size: 20px;" opacity="0.9">0</text>
    <text x="584" y="312" transform="rotate(-19 584 312)" style="font-size: 16px;" opacity="0.7">1</text>
    <text x="701" y="100" transform="rotate(12 701 100)" style="font-size: 24px;" opacity="0.8">1</text>
    <text x="597" y="310" transform="rotate(0 597 310)" style="font-size: 18px;" opacity="0.6">1</text>
    <text x="622" y="80" transform="rotate(-17 622 80)" style="font-size: 26px;" opacity="0.8">0</text>
    <text x="432" y="67" transform="rotate(24 432 67)" style="font-size: 32px;" opacity="0.5">0</text>
    <text x="70" y="88" transform="rotate(-4 70 88)" style="font-size: 22px;" opacity="0.6">1</text>
    <text x="76" y="358" transform="rotate(22 76 358)" style="font-size: 18px;" opacity="0.5">1</text>
    <text x="46" y="211" transform="rotate(-18 46 211)" style="font-size: 14px;" opacity="0.7">1</text>
    <text x="27" y="365" transform="rotate(24 27 365)" style="font-size: 26px;" opacity="0.7">1</text>
    <text x="111" y="133" transform="rotate(23 111 133)" style="font-size: 28px;" opacity="1.0">1</text>
    <text x="589" y="199" transform="rotate(8 589 199)" style="font-size: 14px;" opacity="0.5">0</text>
  </g>
</svg>